Simulation
nRows=31
nColumns=15
endheader
time  TH_x TH_y TH_z SC_y  SC_z  SC_x  AC_y  AC_z  AC_x  GH_y  GH_z  GH_yy  EL_x  PS_y
1.6000000000000014  0.000000  0.000000  0.000000  -48.056293528396516  15.801602493118539  51.936517725801764  55.01891428617446  -9.301580077312993  1.395786879254135  71.97733909049639  63.25584067728169  -78.038323720572  18.211032954689088  120.000000
1.6320000000000014  0.000000  0.000000  0.000000  -48.05715329446639  15.804286897879816  52.0063835147779  54.97245749353084  -9.301580066483146  1.3531017864138395  72.04369342229117  62.9724398724267  -77.95916096153118  18.23822169841294  120.000000
1.6640000000000015  0.000000  0.000000  0.000000  -47.984596832120516  15.743916017881729  51.87119407806118  54.98459974490499  -9.3015800938053  1.2773554729958123  72.1554218410992  62.525491980060586  -77.76307178849119  18.27561548027083  120.000000
1.6960000000000015  0.000000  0.000000  0.000000  -47.840380577714136  15.618715793538572  51.538109198547154  55.048345848963045  -9.301580148447302  1.1615388905648876  72.31453135826096  61.92058096653644  -77.47269692099484  18.32291956353285  120.000000
1.7280000000000015  0.000000  0.000000  0.000000  -47.62550095798976  15.427080526246586  51.013220055159074  55.15536795597981  -9.301580034052382  1.0021062281214828  72.51374618416227  61.16634452693928  -77.11705166229544  18.379106417521836  120.000000
1.7600000000000016  0.000000  0.000000  0.000000  -47.34176418926922  15.167215198678793  50.30116107579478  55.29758438613473  -9.301580188715446  0.7991891128817511  72.73640010545819  60.2755079767452  -76.72817818137088  18.44234412738238  120.000000
1.7920000000000016  0.000000  0.000000  0.000000  -46.99051518759232  14.837688129023373  49.404466667700234  55.466580773845116  -9.301579466331967  0.556244825970332  72.95754203509868  59.264569624077374  -76.33512349987087  18.51061736198393  120.000000
1.8240000000000016  0.000000  0.000000  0.000000  -46.57187439055844  14.43899125496302  48.32683622321492  55.652120364552395  -9.301580147016582  0.2802413507148268  73.14697994475749  58.15083305918583  -75.95653093703652  18.58052351879475  120.000000
1.8560000000000016  0.000000  0.000000  0.000000  -46.086827410204535  13.974552870302887  47.07842876771893  55.841917275393406  -9.301470906682939  -0.018590833136489057  73.2733789356697  56.94970727733674  -75.59291165506825  18.645485987459256  120.000000
1.8880000000000017  0.000000  0.000000  0.000000  -45.53978054231095  13.450756915293276  45.68107145728516  56.02219534775458  -9.301580332035444  -0.32936114480272877  73.30917892647419  55.67292079194155  -75.2215703910165  18.696461486383264  120.000000
1.9200000000000017  0.000000  0.000000  0.000000  -44.94069521778863  12.877117950883392  44.16783823520075  56.17837243786641  -9.30157920682081  -0.642872506634311  73.23620517553219  54.32858536752802  -74.79737728233297  18.724458226199495  120.000000
1.9520000000000017  0.000000  0.000000  0.000000  -44.306480471867594  12.265954706198277  42.58050839608715  56.29684375961609  -9.301580425357358  -0.953856277962195  73.04824585246455  52.922893026769955  -74.26046406477157  18.723499308417317  120.000000
1.9840000000000018  0.000000  0.000000  0.000000  -43.659750770060974  11.62984348330572  40.963875932461754  56.367582258231174  -9.301580154647674  -1.2615495223928663  72.75016703124848  51.461534591964984  -73.54961695132366  18.692969956352915  120.000000
2.016000000000002  0.000000  0.000000  0.000000  -43.02444943758287  10.979704530247263  39.35895406654526  56.38547612748273  -9.301580455820895  -1.5690719417178691  72.35377017455177  49.9505325711473  -72.61576042868712  18.639142060916587  120.000000
2.048000000000002  0.000000  0.000000  0.000000  -42.419381884737774  10.32431891677006  37.79661341947897  56.3495438857793  -9.301580188697049  -1.881010012412053  71.87236017740483  48.39548804658804  -71.43339156656357  18.575651409865188  120.000000
2.080000000000002  0.000000  0.000000  0.000000  -41.85313548410851  9.670768389244577  36.29366590903529  56.26079361665746  -9.301580466203317  -2.200721340883371  71.31498192354974  46.80110222815534  -70.00473583352945  18.522104508778916  120.000000
2.112000000000002  0.000000  0.000000  0.000000  -41.3267679019296  9.028821142556389  34.8514016861  56.1200707620804  -9.301259206925499  -2.524661834252131  70.68566030708311  45.17081332775018  -68.35709861593124  18.499784081000392  120.000000
2.144000000000002  0.000000  0.000000  0.000000  -40.83756432034366  8.414453094397313  33.45481287015535  55.92483141808378  -9.301580482851715  -2.8407047863558175  69.98258447715227  43.50987812177187  -66.53360006612624  18.529660794042826  120.000000
2.176000000000002  0.000000  0.000000  0.000000  -40.379254558514845  7.838710756777268  32.06395969728157  55.671836904293606  -9.277973797613335  -3.128191599392756  69.20739685522419  41.82289551555618  -64.58044761139791  18.630181238791117  120.000000
2.208000000000002  0.000000  0.000000  0.000000  -39.943430218776896  7.297029436965562  30.60363698645346  55.366905435771265  -9.14812608398817  -3.3540369427010237  68.37769343359206  40.10997947510868  -62.53920683218249  18.81059668962978  120.000000
2.240000000000002  0.000000  0.000000  0.000000  -39.52199371256385  6.781103614130681  28.995637592969178  55.020373100621796  -8.826479818471025  -3.4823008298592946  67.50710365548447  38.37286648066575  -60.43808653311232  19.07162715328721  120.000000
2.272000000000002  0.000000  0.000000  0.000000  -39.11049424423031  6.289992016312159  27.191615661493685  54.63984698347545  -8.278744580448054  -3.483554636426441  66.58645060076405  36.619269335317355  -58.28877349855204  19.407355485233968  120.000000
2.304000000000002  0.000000  0.000000  0.000000  -38.708111824374775  5.824777473504325  25.17182058128711  54.23305897178233  -7.506882915576889  -3.3354267526473884  65.59143119980959  34.858408506385985  -56.088355101514175  19.803996715020656  120.000000
2.336000000000002  0.000000  0.000000  0.000000  -38.31459205829543  5.383538914978454  22.941435752292705  53.80799649340284  -6.5318445659988935  -3.0265466330929294  64.49043680172608  33.097535029715836  -53.82053840372932  20.244229535495677  120.000000
2.368000000000002  0.000000  0.000000  0.000000  -37.93145120704845  4.962108745571879  20.52551631924217  53.371685224404835  -5.38466383816873  -2.5578095585151486  63.25094682991959  31.34231538923829  -51.46106549767065  20.711823200326037  120.000000
2.400000000000002  0.000000  0.000000  0.000000  -37.56431124900999  4.555778147312806  17.963362582523168  52.92934485661272  -4.099946620162504  -1.9415804423936123  61.845259872745984  29.598034846158956  -48.98346628985587  21.192154689568586  120.000000
2.432000000000002  0.000000  0.000000  0.000000  -37.221945859002766  4.160628181699297  15.303365697265065  52.48359554023323  -2.7120117598960847  -1.2005040419861297  60.253899516582194  27.87059370627964  -46.365094634464285  21.67142721425169  120.000000
2.464000000000002  0.000000  0.000000  0.000000  -36.91458323434559  3.774190918513697  12.597917047863326  52.034276230501426  -1.2530122581936856  -0.3643681523191336  58.46868064855708  26.167122090376296  -43.59176447716679  22.13777512537296  120.000000
2.496000000000002  0.000000  0.000000  0.000000  -36.652790086633544  3.395807704260827  9.899231882123303  51.579810510788924  0.24615882019854926  0.5338177439690006  56.49480089469061  24.497492020172423  -40.661212784620446  22.58148077385391  120.000000
2.5280000000000022  0.000000  0.000000  0.000000  -36.44517523518863  3.0267876178749495  7.255894403872873  51.118364746656425  1.754718756033638  1.4616239359226444  54.350537889988004  22.874349329349446  -37.58566694875654  22.99298767805437  120.000000
2.5600000000000023  0.000000  0.000000  0.000000  -36.296255210696046  2.6700843318285266  4.71065552166138  50.64782032111848  3.2413537245529414  2.3894014652821354  52.06535498774304  21.312193231997725  -34.392213944284805  23.36068799375675  120.000000
